<?xml version="1.0" standalone="no"?>
<!DOCTYPE svg PUBLIC "-//W3C//DTD SVG 20010904//EN"
 "http://www.w3.org/TR/2001/REC-SVG-20010904/DTD/svg10.dtd">
<svg version="1.0" xmlns="http://www.w3.org/2000/svg"
 width="4000.000000pt" height="4000.000000pt" viewBox="0 0 4000.000000 4000.000000"
 preserveAspectRatio="xMidYMid meet">

<g transform="translate(0.000000,4000.000000) scale(0.100000,-0.100000)"
fill="#000000" stroke="none">
<path d="M20848 32064 c-97 -17 -218 -62 -300 -109 -34 -20 -130 -85 -213
-143 -272 -192 -2326 -1648 -3790 -2687 -1525 -1082 -3028 -2148 -5165 -3663
-1845 -1308 -1839 -1304 -1897 -1357 -119 -106 -223 -279 -280 -460 l-28 -90
0 -7970 c0 -7528 1 -7974 17 -8037 49 -192 137 -348 267 -479 141 -140 306
-229 498 -268 l101 -21 11004 2 11003 3 96 26 c175 49 316 133 449 269 138
140 231 321 265 515 13 78 15 947 15 7971 0 5493 -3 7906 -11 7961 -30 224
-159 459 -331 603 -36 30 -497 361 -1024 735 -528 373 -1584 1123 -2349 1666
-1837 1303 -4266 3025 -5815 4124 -333 236 -866 614 -1186 841 -319 226 -616
432 -660 458 -189 109 -440 151 -666 110z m1109 -2840 c505 -358 1478 -1049
2163 -1534 685 -486 1808 -1282 2495 -1770 688 -487 1475 -1045 1750 -1240
509 -360 1976 -1400 2343 -1661 l202 -144 0 -7057 0 -7058 -9880 0 -9880 0 0
7058 0 7057 2103 1492 c2422 1719 4022 2854 5867 4161 718 509 1440 1021 1605
1139 165 117 303 212 307 210 4 -1 421 -295 925 -653z"/>
<path d="M20810 21770 c-340 -29 -671 -123 -990 -281 -651 -323 -1158 -912
-1379 -1605 -129 -401 -160 -880 -85 -1304 159 -898 775 -1665 1631 -2030 l52
-22 4 -1282 3 -1281 22 -85 c27 -99 92 -242 151 -328 97 -144 280 -289 441
-351 142 -55 200 -65 375 -65 192 0 275 18 430 94 279 137 473 388 536 695 18
85 19 160 19 1346 l0 1257 58 23 c337 134 697 388 956 674 416 461 652 1001
707 1616 43 486 -65 1019 -298 1469 -127 247 -290 468 -493 670 -420 419 -945
683 -1535 771 -148 22 -457 32 -605 19z m442 -2002 c207 -68 383 -230 463
-427 63 -154 72 -350 22 -503 -94 -294 -356 -497 -662 -515 -298 -17 -568 137
-699 399 -64 128 -80 198 -80 338 0 136 16 209 74 325 98 199 272 341 485 395
113 28 288 23 397 -12z"/>
</g>
</svg>
